{
	"asset":{
		"generator":"Khronos glTF Blender I/O v4.0.44",
		"version":"2.0"
	},
	"scene":0,
	"scenes":[
		{
			"name":"Scene",
			"nodes":[
				0,
				1
			]
		}
	],
	"nodes":[
		{
			"mesh":0,
			"name":"ROUTE_MB1-LC",
			"rotation":[
				0,
				0.7071067094802856,
				0,
				0.7071068286895752
			],
			"translation":[
				187.72244262695312,
				1.8816133737564087,
				-83.8987045288086
			]
		},
		{
			"mesh":1,
			"name":"ROUTE_MB2-LC",
			"rotation":[
				0,
				0.7071067094802856,
				0,
				0.7071068286895752
			],
			"translation":[
				183.70883178710938,
				1.8816133737564087,
				-20.90839958190918
			]
		}
	],
	"meshes":[
		{
			"name":"Mesh",
			"primitives":[
				{
					"attributes":{
						"POSITION":0
					},
					"indices":1,
					"mode":1
				}
			]
		},
		{
			"name":"Mesh.001",
			"primitives":[
				{
					"attributes":{
						"POSITION":2
					},
					"indices":3,
					"mode":1
				}
			]
		}
	],
	"accessors":[
		{
			"bufferView":0,
			"componentType":5126,
			"count":169,
			"max":[
				271.78497314453125,
				0,
				140.70816040039062
			],
			"min":[
				-77.85758209228516,
				0,
				-994.0225219726562
			],
			"type":"VEC3"
		},
		{
			"bufferView":1,
			"componentType":5123,
			"count":336,
			"type":"SCALAR"
		},
		{
			"bufferView":2,
			"componentType":5126,
			"count":157,
			"max":[
				334.7752685546875,
				0,
				144.72177124023438
			],
			"min":[
				-14.86727237701416,
				0,
				-990.0089111328125
			],
			"type":"VEC3"
		},
		{
			"bufferView":3,
			"componentType":5123,
			"count":312,
			"type":"SCALAR"
		}
	],
	"bufferViews":[
		{
			"buffer":0,
			"byteLength":2028,
			"byteOffset":0,
			"target":34962
		},
		{
			"buffer":0,
			"byteLength":672,
			"byteOffset":2028,
			"target":34963
		},
		{
			"buffer":0,
			"byteLength":1884,
			"byteOffset":2700,
			"target":34962
		},
		{
			"buffer":0,
			"byteLength":624,
			"byteOffset":4584,
			"target":34963
		}
	],
	"buffers":[
		{
			"byteLength":5208,
			"uri":"routes.bin"
		}
	]
}
