{
	"asset":{
		"generator":"Khronos glTF Blender I/O v4.0.44",
		"version":"2.0"
	},
	"scene":0,
	"scenes":[
		{
			"name":"Scene",
			"nodes":[
				0,
				1
			]
		}
	],
	"nodes":[
		{
			"mesh":0,
			"name":"Ground",
			"scale":[
				324.8299865722656,
				1,
				166.64999389648438
			]
		},
		{
			"mesh":1,
			"name":"Cube",
			"rotation":[
				0,
				-0.19295011460781097,
				0,
				0.9812085628509521
			],
			"translation":[
				-208.7613983154297,
				8.237699508666992,
				62.405914306640625
			]
		}
	],
	"materials":[
		{
			"doubleSided":true,
			"name":"Ground",
			"pbrMetallicRoughness":{
				"baseColorTexture":{
					"index":0
				},
				"metallicFactor":0,
				"roughnessFactor":0.9269999861717224
			}
		}
	],
	"meshes":[
		{
			"name":"Plane",
			"primitives":[
				{
					"attributes":{
						"POSITION":0,
						"NORMAL":1,
						"TEXCOORD_0":2
					},
					"indices":3,
					"material":0
				}
			]
		},
		{
			"name":"Cube.001",
			"primitives":[
				{
					"attributes":{
						"POSITION":4,
						"NORMAL":5,
						"TEXCOORD_0":6
					},
					"indices":7
				},
				{
					"attributes":{
						"POSITION":8,
						"NORMAL":9,
						"TEXCOORD_0":10
					},
					"indices":11
				}
			]
		}
	],
	"textures":[
		{
			"sampler":0,
			"source":0
		}
	],
	"images":[
		{
			"mimeType":"image/png",
			"name":"LaunchSiteTexture",
			"uri":"LaunchSiteTexture.png"
		}
	],
	"accessors":[
		{
			"bufferView":0,
			"componentType":5126,
			"count":24,
			"max":[
				1,
				0,
				1
			],
			"min":[
				-1,
				-10.69999885559082,
				-1
			],
			"type":"VEC3"
		},
		{
			"bufferView":1,
			"componentType":5126,
			"count":24,
			"type":"VEC3"
		},
		{
			"bufferView":2,
			"componentType":5126,
			"count":24,
			"type":"VEC2"
		},
		{
			"bufferView":3,
			"componentType":5123,
			"count":36,
			"type":"SCALAR"
		},
		{
			"bufferView":4,
			"componentType":5126,
			"count":88,
			"max":[
				9.330652236938477,
				3.292609691619873,
				9.330581665039062
			],
			"min":[
				-9.33053970336914,
				-3.292609691619873,
				-9.330609321594238
			],
			"type":"VEC3"
		},
		{
			"bufferView":5,
			"componentType":5126,
			"count":88,
			"type":"VEC3"
		},
		{
			"bufferView":6,
			"componentType":5126,
			"count":88,
			"type":"VEC2"
		},
		{
			"bufferView":7,
			"componentType":5123,
			"count":240,
			"type":"SCALAR"
		},
		{
			"bufferView":8,
			"componentType":5126,
			"count":66,
			"max":[
				5.873990058898926,
				3.292609691619873,
				5.87400484085083
			],
			"min":[
				-5.874011039733887,
				-3.292609691619873,
				-5.873996257781982
			],
			"type":"VEC3"
		},
		{
			"bufferView":9,
			"componentType":5126,
			"count":66,
			"type":"VEC3"
		},
		{
			"bufferView":10,
			"componentType":5126,
			"count":66,
			"type":"VEC2"
		},
		{
			"bufferView":11,
			"componentType":5123,
			"count":192,
			"type":"SCALAR"
		}
	],
	"bufferViews":[
		{
			"buffer":0,
			"byteLength":288,
			"byteOffset":0,
			"target":34962
		},
		{
			"buffer":0,
			"byteLength":288,
			"byteOffset":288,
			"target":34962
		},
		{
			"buffer":0,
			"byteLength":192,
			"byteOffset":576,
			"target":34962
		},
		{
			"buffer":0,
			"byteLength":72,
			"byteOffset":768,
			"target":34963
		},
		{
			"buffer":0,
			"byteLength":1056,
			"byteOffset":840,
			"target":34962
		},
		{
			"buffer":0,
			"byteLength":1056,
			"byteOffset":1896,
			"target":34962
		},
		{
			"buffer":0,
			"byteLength":704,
			"byteOffset":2952,
			"target":34962
		},
		{
			"buffer":0,
			"byteLength":480,
			"byteOffset":3656,
			"target":34963
		},
		{
			"buffer":0,
			"byteLength":792,
			"byteOffset":4136,
			"target":34962
		},
		{
			"buffer":0,
			"byteLength":792,
			"byteOffset":4928,
			"target":34962
		},
		{
			"buffer":0,
			"byteLength":528,
			"byteOffset":5720,
			"target":34962
		},
		{
			"buffer":0,
			"byteLength":384,
			"byteOffset":6248,
			"target":34963
		}
	],
	"samplers":[
		{
			"magFilter":9729,
			"minFilter":9987
		}
	],
	"buffers":[
		{
			"byteLength":6632,
			"uri":"SBLaunchSite.bin"
		}
	]
}
